# Blender v2.79 (sub 0) OBJ File: ''
# www.blender.org
mtllib untitled.mtl
o Cone
v 0.000000 -0.750000 -0.500000
v 0.097545 -0.750000 -0.490393
v 0.191342 -0.750000 -0.461940
v 0.277785 -0.750000 -0.415735
v 0.353553 -0.750000 -0.353553
v 0.415735 -0.750000 -0.277785
v 0.461940 -0.750000 -0.191342
v 0.490393 -0.750000 -0.097545
v 0.500000 -0.750000 -0.000000
v 0.490393 -0.750000 0.097545
v 0.461940 -0.750000 0.191342
v 0.415735 -0.750000 0.277785
v 0.353553 -0.750000 0.353553
v 0.277785 -0.750000 0.415735
v 0.191342 -0.750000 0.461940
v 0.097545 -0.750000 0.490393
v -0.000000 -0.750000 0.500000
v -0.097545 -0.750000 0.490393
v -0.191342 -0.750000 0.461940
v -0.277785 -0.750000 0.415735
v -0.353554 -0.750000 0.353553
v -0.415735 -0.750000 0.277785
v -0.461940 -0.750000 0.191341
v -0.490393 -0.750000 0.097545
v -0.500000 -0.750000 -0.000000
v -0.490393 -0.750000 -0.097546
v -0.461940 -0.750000 -0.191342
v -0.415734 -0.750000 -0.277786
v -0.353553 -0.750000 -0.353554
v -0.277785 -0.750000 -0.415735
v -0.191341 -0.750000 -0.461940
v -0.097544 -0.750000 -0.490393
v 0.024386 0.000000 0.122598
v -0.000000 0.000000 0.125000
v 0.047835 0.000000 0.115485
v -0.088388 0.000000 0.088388
v -0.069446 0.000000 0.103934
v 0.069446 0.000000 0.103934
v -0.024386 0.000000 0.122598
v -0.047835 0.000000 0.115485
v 0.103934 0.000000 -0.069446
v 0.115485 0.000000 -0.047835
v 0.122598 0.000000 -0.024386
v 0.088388 0.000000 0.088388
v 0.125000 0.000000 -0.000000
v 0.122598 0.000000 0.024386
v 0.088388 0.000000 -0.088388
v 0.115485 0.000000 0.047835
v 0.103934 0.000000 0.069446
v 0.047835 0.000000 -0.115485
v 0.069446 0.000000 -0.103934
v 0.024386 0.000000 -0.122598
v 0.000000 0.000000 -0.125000
v -0.024386 0.000000 -0.122598
v -0.122598 0.000000 0.024386
v -0.125000 0.000000 -0.000000
v -0.115485 0.000000 0.047835
v -0.103934 0.000000 0.069446
v -0.088388 0.000000 -0.088388
v -0.069446 0.000000 -0.103934
v -0.103934 0.000000 -0.069446
v -0.122598 0.000000 -0.024386
v -0.047835 0.000000 -0.115485
v -0.115485 0.000000 -0.047836
vn 0.0878 0.4455 -0.8910
vn 0.2599 0.4455 -0.8567
vn 0.4220 0.4455 -0.7896
vn 0.5680 0.4455 -0.6921
vn 0.6921 0.4455 -0.5680
vn 0.7896 0.4455 -0.4220
vn 0.8567 0.4455 -0.2599
vn 0.8910 0.4455 -0.0878
vn 0.8910 0.4455 0.0878
vn 0.8567 0.4455 0.2599
vn 0.7896 0.4455 0.4220
vn 0.6921 0.4455 0.5680
vn 0.5680 0.4455 0.6921
vn 0.4220 0.4455 0.7896
vn 0.2599 0.4455 0.8567
vn 0.0878 0.4455 0.8910
vn -0.0878 0.4455 0.8910
vn -0.2599 0.4455 0.8567
vn -0.4220 0.4455 0.7896
vn -0.5680 0.4455 0.6921
vn -0.6921 0.4455 0.5680
vn -0.7896 0.4455 0.4220
vn -0.8567 0.4455 0.2599
vn -0.8910 0.4455 0.0878
vn -0.8910 0.4455 -0.0878
vn -0.8567 0.4455 -0.2599
vn -0.7896 0.4455 -0.4220
vn -0.6921 0.4455 -0.5680
vn -0.5680 0.4455 -0.6921
vn -0.4220 0.4455 -0.7896
vn -0.2599 0.4455 -0.8567
vn -0.0878 0.4455 -0.8910
vn 0.0000 -1.0000 -0.0000
vn 0.0000 1.0000 0.0000
usemtl None
s off
f 1//1 53//1 52//1 2//1
f 2//2 52//2 50//2 3//2
f 3//3 50//3 51//3 4//3
f 4//4 51//4 47//4 5//4
f 5//5 47//5 41//5 6//5
f 6//6 41//6 42//6 7//6
f 7//7 42//7 43//7 8//7
f 8//8 43//8 45//8 9//8
f 9//9 45//9 46//9 10//9
f 10//10 46//10 48//10 11//10
f 11//11 48//11 49//11 12//11
f 12//12 49//12 44//12 13//12
f 13//13 44//13 38//13 14//13
f 14//14 38//14 35//14 15//14
f 15//15 35//15 33//15 16//15
f 16//16 33//16 34//16 17//16
f 17//17 34//17 39//17 18//17
f 18//18 39//18 40//18 19//18
f 19//19 40//19 37//19 20//19
f 20//20 37//20 36//20 21//20
f 21//21 36//21 58//21 22//21
f 22//22 58//22 57//22 23//22
f 23//23 57//23 55//23 24//23
f 24//24 55//24 56//24 25//24
f 25//25 56//25 62//25 26//25
f 26//26 62//26 64//26 27//26
f 27//27 64//27 61//27 28//27
f 28//28 61//28 59//28 29//28
f 29//29 59//29 60//29 30//29
f 30//30 60//30 63//30 31//30
f 31//31 63//31 54//31 32//31
f 32//32 54//32 53//32 1//32
f 1//33 2//33 3//33 4//33 5//33 6//33 7//33 8//33 9//33 10//33 11//33 12//33 13//33 14//33 15//33 16//33 17//33 18//33 19//33 20//33 21//33 22//33 23//33 24//33 25//33 26//33 27//33 28//33 29//33 30//33 31//33 32//33
f 56//34 55//34 57//34 58//34 36//34 37//34 40//34 39//34 34//34 33//34 35//34 38//34 44//34 49//34 48//34 46//34 45//34 43//34 42//34 41//34 47//34 51//34 50//34 52//34 53//34 54//34 63//34 60//34 59//34 61//34 64//34 62//34
